<svg xml:space="preserve" style="enable-background:new 0 0 1024 1024;" viewBox="0 0 1024 1024" y="0px" x="0px" xmlns:xlink="http://www.w3.org/1999/xlink" xmlns="http://www.w3.org/2000/svg" id="图层_1" version="1.1">
<style type="text/css">
	.st0{fill:#D6791A;}
	.st1{fill:#EDA12A;}
	.st2{fill:#FFE03D;}
	.st3{fill:#D49700;}
	.st4{fill:#FEFFF9;}
	.st5{fill:#F4CC3E;}
	.st6{fill:#FFDFD3;}
	.st7{fill:#FE5631;}
	.st8{fill:#BB8900;}
	.st9{fill:#FFFFFF;}
	.st10{fill:#B36B00;}
	.st11{fill:#C98A00;}
	.st12{fill:#EBC08B;}
	.st13{fill:#955E20;}
	.st14{fill:#542200;}
	.st15{fill:#824900;}
	.st16{fill-rule:evenodd;clip-rule:evenodd;fill:#9AE100;}
	.st17{fill-rule:evenodd;clip-rule:evenodd;fill:#9820AB;}
	.st18{fill-rule:evenodd;clip-rule:evenodd;fill:#FFFFFF;}
	.st19{fill-rule:evenodd;clip-rule:evenodd;fill:#3BD400;}
	.st20{fill-rule:evenodd;clip-rule:evenodd;fill:#EA1F00;}
	.st21{fill:#771000;}
	.st22{fill-rule:evenodd;clip-rule:evenodd;fill:#FFA421;}
	.st23{fill-rule:evenodd;clip-rule:evenodd;}
	.st24{fill:#E67907;}
	.st25{clip-path:url(#SVGID_2_);fill-rule:evenodd;clip-rule:evenodd;fill:#FF2734;}
	.st26{clip-path:url(#SVGID_2_);fill-rule:evenodd;clip-rule:evenodd;fill:#BFE583;}
	.st27{clip-path:url(#SVGID_2_);fill-rule:evenodd;clip-rule:evenodd;fill:#4D8300;}
	.st28{fill:#970000;}
	.st29{fill-rule:evenodd;clip-rule:evenodd;fill:#FF816A;}
	.st30{fill-rule:evenodd;clip-rule:evenodd;fill:#FFB85D;}
	.st31{clip-path:url(#SVGID_4_);}
	.st32{fill-rule:evenodd;clip-rule:evenodd;fill:#E39A00;}
	.st33{fill:#996B00;}
	.st34{fill-rule:evenodd;clip-rule:evenodd;fill:#D67E00;}
	.st35{fill-rule:evenodd;clip-rule:evenodd;fill:#D82200;}
	.st36{clip-path:url(#SVGID_4_);fill:#FF755F;}
	.st37{fill-rule:evenodd;clip-rule:evenodd;fill:#FFD755;}
	.st38{fill-rule:evenodd;clip-rule:evenodd;fill:#FFB110;}
	.st39{fill-rule:evenodd;clip-rule:evenodd;fill:#FFE7D6;}
	.st40{fill-rule:evenodd;clip-rule:evenodd;fill:#FFC37F;}
	.st41{fill-rule:evenodd;clip-rule:evenodd;fill:#FFEEC2;}
	.st42{fill-rule:evenodd;clip-rule:evenodd;fill:#F5FF6E;}
	.st43{clip-path:url(#SVGID_6_);fill-rule:evenodd;clip-rule:evenodd;fill:#B5E900;}
	.st44{clip-path:url(#SVGID_6_);fill-rule:evenodd;clip-rule:evenodd;fill:#8AC300;}
	.st45{clip-path:url(#SVGID_6_);}
	.st46{fill:#FFE46E;}
	.st47{fill:#FFBB1D;}
	.st48{clip-path:url(#SVGID_6_);fill:#FFFFFF;}
	.st49{clip-path:url(#SVGID_6_);fill-rule:evenodd;clip-rule:evenodd;fill:#FFFFFA;}
	.st50{fill-rule:evenodd;clip-rule:evenodd;fill:#8AC300;}
	.st51{clip-path:url(#SVGID_8_);}
	.st52{fill-rule:evenodd;clip-rule:evenodd;fill:#6500DD;}
	.st53{clip-path:url(#SVGID_8_);fill-rule:evenodd;clip-rule:evenodd;fill:#FFFFFF;}
	.st54{fill-rule:evenodd;clip-rule:evenodd;fill:#E5FBA5;}
	.st55{fill:#829500;}
	.st56{fill-rule:evenodd;clip-rule:evenodd;fill:#ECB4CD;}
	.st57{clip-path:url(#SVGID_10_);fill-rule:evenodd;clip-rule:evenodd;fill:#FFC7BF;}
	.st58{clip-path:url(#SVGID_10_);fill-rule:evenodd;clip-rule:evenodd;fill:#FF8C72;}
	.st59{fill-rule:evenodd;clip-rule:evenodd;fill:#FFEEC3;}
	.st60{fill-rule:evenodd;clip-rule:evenodd;fill:#FF9666;}
	.st61{fill-rule:evenodd;clip-rule:evenodd;fill:#FF663F;}
	.st62{display:none;opacity:0.5;}
	.st63{display:inline;fill-rule:evenodd;clip-rule:evenodd;fill:#777EFF;}
	.st64{fill:#D8F4FF;}
	.st65{clip-path:url(#SVGID_12_);fill:#81C2E2;}
	.st66{clip-path:url(#SVGID_12_);fill:#7BCEF0;}
	.st67{clip-path:url(#SVGID_12_);fill:#79CEEB;}
	.st68{clip-path:url(#SVGID_12_);fill:#C2E7F7;}
	.st69{clip-path:url(#SVGID_12_);fill:#FFFFFF;}
</style>
<g>
	<g>
		<path d="M380.8,163.4c120.7-37.9,258.8-50.1,397.5,51.8s245.6,544.7-152.5,657.7c-400.5,113.7-530.6-260.7-506.4-425
			C144.5,278,302.9,187.9,380.8,163.4z" class="st22"></path>
		<path d="M543.1,135.8c76.1,0,155.5,20.9,235.2,79.5c138.8,102,245.6,544.7-152.5,657.7c-51.3,14.6-98.3,21.1-141,21.1
			c-290.4,0-386.5-302.9-365.4-446.2c25.1-169.9,183.4-260,261.4-284.5C432.2,147.3,486.7,135.8,543.1,135.8 M543.1,101L543.1,101
			c-53.6,0-110.1,9.6-172.8,29.2c-93.2,29.3-258.2,128.1-285.4,312.7c-14.2,96.3,19.6,249.7,111.7,356.3
			c73.3,84.9,173,129.8,288.2,129.8c47.4,0,98-7.6,150.5-22.5c164-46.5,269.2-155.1,296.4-305.6c30.1-167-44.3-348.8-132.7-413.8
			C721.1,130,635,101,543.1,101L543.1,101z"></path>
	</g>
	<path d="M408.8,234.6c0,0,18.1-16.7,31-14.4c12.9,2.4,8.7,37.1,8.7,37.1s20-37,31.4-40.1s38.8,8.4,38.8,8.4
		s-21.1-21.9-16.8-29.2c4.3-7.3,28.1-27.6,28.1-27.6s-36.8,18.6-50.1,12.4c-13.2-6.2-22.8-22.8-22.8-22.8s-5,20.3-16.1,29
		c-11.2,8.7-51.7,2.1-51.7,2.1s26.9,16.4,31,22.1S408.8,234.6,408.8,234.6z" class="st23"></path>
	<path d="M187.5,428.4c30,3.3,19.3,52.4,29.8,134c11.3,87.7,68.6,141.2,38.2,156.8s-64.6-50.1-83-113.3
		C154.1,542.7,143.6,423.6,187.5,428.4z" class="st18"></path>
	<path d="M193.7,354.3c-12.8,19.6-20.5,37.8-3.4,48c29.8,17.8,45.9-13.2,48.2-28.3
		C243.7,339.8,203.4,339.5,193.7,354.3z" class="st18"></path>
	<g>
		<g>
			<path d="M798.2,396.8c1,5,2.1,10,3.1,15c0.5,2.3,1.6,4.2,3.1,5.9c1.2,1.9,2.9,3.4,4.9,4.5c2,1.3,4.2,2,6.5,2.1
				c2.3,0.5,4.6,0.4,7-0.3c1.4-0.6,2.8-1.2,4.2-1.8c2.6-1.5,4.7-3.6,6.3-6.3c0.6-1.4,1.2-2.8,1.8-4.2c0.8-3.1,0.8-6.2,0-9.3
				c-1-5-2.1-10-3.1-15c-0.5-2.3-1.6-4.2-3.1-5.9c-1.2-1.9-2.9-3.4-4.9-4.5c-2-1.3-4.2-2-6.5-2.1c-2.3-0.5-4.6-0.4-7,0.3
				c-1.4,0.6-2.8,1.2-4.2,1.8c-2.6,1.5-4.7,3.6-6.3,6.3c-0.6,1.4-1.2,2.8-1.8,4.2C797.4,390.6,797.4,393.7,798.2,396.8L798.2,396.8z" class="st24"></path>
		</g>
		<g>
			<path d="M766.4,526.5c-1.6,6.7-3.1,13.4-4.7,20c-1.1,4.5-0.6,9.4,1.8,13.4c1.1,2,2.6,3.7,4.5,4.9
				c1.7,1.5,3.7,2.6,5.9,3.1c4.5,1,9.5,0.8,13.4-1.8c3.7-2.4,7-6,8-10.4c1.6-6.7,3.1-13.4,4.7-20c1.1-4.5,0.6-9.4-1.8-13.4
				c-1.1-2-2.6-3.7-4.5-4.9c-1.7-1.5-3.7-2.6-5.9-3.1c-4.5-1-9.5-0.8-13.4,1.8C770.6,518.4,767.4,522,766.4,526.5L766.4,526.5z" class="st24"></path>
		</g>
		<g>
			<path d="M770.7,657.7c-0.8,5.3-1.5,10.7-2.3,16c-0.7,2.3-0.8,4.6-0.3,7c0.1,2.3,0.8,4.5,2.1,6.5
				c1.1,2,2.6,3.7,4.5,4.9c1.7,1.5,3.7,2.6,5.9,3.1c1.5,0.2,3.1,0.4,4.6,0.6c3.1,0,6.1-0.8,8.8-2.4c1.2-0.9,2.4-1.8,3.5-2.7
				c2.2-2.2,3.7-4.7,4.5-7.7c0.8-5.3,1.5-10.7,2.3-16c0.7-2.3,0.8-4.6,0.3-7c-0.1-2.3-0.8-4.5-2.1-6.5c-1.1-2-2.6-3.7-4.5-4.9
				c-1.7-1.5-3.7-2.6-5.9-3.1c-1.5-0.2-3.1-0.4-4.6-0.6c-3.1,0-6.1,0.8-8.8,2.4c-1.2,0.9-2.4,1.8-3.5,2.7
				C773,652.1,771.5,654.7,770.7,657.7L770.7,657.7z" class="st24"></path>
		</g>
		<g>
			<path d="M719.7,743.2c-2.4,2.2-4.9,4.5-7.3,6.7c-1.7,1.6-2.9,3.4-3.6,5.6c-1.1,2.1-1.6,4.3-1.5,6.7
				c-0.1,2.4,0.4,4.6,1.5,6.7c0.7,2.2,1.9,4,3.6,5.6c1.2,0.9,2.4,1.8,3.5,2.7c2.7,1.6,5.7,2.4,8.8,2.4c1.5-0.2,3.1-0.4,4.6-0.6
				c3-0.8,5.5-2.3,7.7-4.5c2.4-2.2,4.9-4.5,7.3-6.7c1.7-1.6,2.9-3.4,3.6-5.6c1.1-2.1,1.6-4.3,1.5-6.7c0.1-2.4-0.4-4.6-1.5-6.7
				c-0.7-2.2-1.9-4-3.6-5.6c-1.2-0.9-2.4-1.8-3.5-2.7c-2.7-1.6-5.7-2.4-8.8-2.4c-1.5,0.2-3.1,0.4-4.6,0.6
				C724.5,739.5,721.9,741,719.7,743.2L719.7,743.2z" class="st24"></path>
		</g>
		<g>
			<path d="M714.5,646.2c22.4,0,22.5-34.9,0-34.9C692.1,611.3,692,646.2,714.5,646.2L714.5,646.2z" class="st24"></path>
		</g>
		<g>
			<path d="M826.8,597.2c1.7,2.5,3.4,5.1,5.1,7.6c1.1,2,2.6,3.7,4.5,4.9c1.7,1.5,3.7,2.6,5.9,3.1
				c2.3,0.7,4.6,0.8,7,0.3c2.3-0.1,4.5-0.8,6.5-2.1c1.2-0.9,2.4-1.8,3.5-2.7c2.2-2.2,3.7-4.7,4.5-7.7c0.2-1.5,0.4-3.1,0.6-4.6
				c0-3.1-0.8-6.1-2.4-8.8c-1.7-2.5-3.4-5.1-5.1-7.6c-1.1-2-2.6-3.7-4.5-4.9c-1.7-1.5-3.7-2.6-5.9-3.1c-2.3-0.7-4.6-0.8-7-0.3
				c-2.3,0.1-4.5,0.8-6.5,2.1c-1.2,0.9-2.4,1.8-3.5,2.7c-2.2,2.2-3.7,4.7-4.5,7.7c-0.2,1.5-0.4,3.1-0.6,4.6
				C824.4,591.6,825.2,594.5,826.8,597.2L826.8,597.2z" class="st24"></path>
		</g>
		<g>
			<path d="M748,466.4c15,0,15-23.2,0-23.2C733,443.2,733,466.4,748,466.4L748,466.4z" class="st24"></path>
		</g>
		<g>
			<path d="M842.2,503.1c1.2,0.3,2.4,0.7,3.7,1c2.3,0.7,4.6,0.8,7,0.3c2.3-0.1,4.5-0.8,6.5-2.1c2-1.1,3.7-2.6,4.9-4.5
				c1.5-1.7,2.6-3.7,3.1-5.9c0.2-1.5,0.4-3.1,0.6-4.6c0-3.1-0.8-6.1-2.4-8.8c-0.9-1.2-1.8-2.4-2.7-3.5c-2.2-2.2-4.7-3.7-7.7-4.5
				c-1.2-0.3-2.4-0.7-3.7-1c-2.3-0.7-4.6-0.8-7-0.3c-2.3,0.1-4.5,0.8-6.5,2.1c-2,1.1-3.7,2.6-4.9,4.5c-1.5,1.7-2.6,3.7-3.1,5.9
				c-0.2,1.5-0.4,3.1-0.6,4.6c0,3.1,0.8,6.1,2.4,8.8c0.9,1.2,1.8,2.4,2.7,3.5C836.7,500.8,839.2,502.3,842.2,503.1L842.2,503.1z" class="st24"></path>
		</g>
		<g>
			<path d="M770.9,359c15,0,15-23.2,0-23.2C756,335.8,756,359,770.9,359L770.9,359z" class="st24"></path>
		</g>
	</g>
</g>
</svg>
